<svg xmlns="http://www.w3.org/2000/svg" width="394" height="232" viewBox="0 0 394 232"><g id="Layer_1" data-name="Layer 1"><rect x="-5.59" y="-7.75" width="413.89" height="255.09" style="fill:#e9ebf7"/></g><g id="Layer_3" data-name="Layer 3"><path d="M77.13,116.13a120,120,0,1,0,120-120A120,120,0,0,0,77.13,116.13Z" style="fill:#e9ebf7"/><path d="M303.06,83a8.14,8.14,0,0,0-5.2-3.83l-85.78-12L132.8,32.34a8.22,8.22,0,0,0-10.39,5.18c0,.13-.07.25-.11.37L93.45,138.75a8.2,8.2,0,0,0,5.64,10.13h0l22.52-.34c1.33,0,2.65,0,4,0A70.42,70.42,0,0,1,167,165.06l7.5,6.16a17.36,17.36,0,0,0,13,3.83l13.08-1.5a68.86,68.86,0,0,1,27.21,2,70.55,70.55,0,0,1,18.06,8.23l19,12.12A8.22,8.22,0,0,0,275,190.26L303.87,89.4A8.17,8.17,0,0,0,303.06,83Z" style="fill:#bec0e2;stroke:#232755;stroke-linecap:round;stroke-linejoin:round;stroke-width:3px"/><path d="M275.94,157.85l-4.75,16.72a8.22,8.22,0,0,1-10.14,5.66,8.94,8.94,0,0,1-2-.89c-14.56-8.87-44.63-23.19-74.94-13.43l4.48-15.79Z" style="fill:#fff;stroke:#232755;stroke-linecap:round;stroke-linejoin:round;stroke-width:3px"/><path d="M184.08,165.91a155.48,155.48,0,0,1,71.37,3.19l8.1,2.3a8.2,8.2,0,0,0,10.13-5.65h0L298.32,78.9a8.21,8.21,0,0,0-5.64-10.14l-8.11-2.3a155.47,155.47,0,0,0-71.37-3.19Z" style="fill:#fff"/><path d="M184.08,165.91a155.48,155.48,0,0,1,71.37,3.19l8.1,2.3a8.2,8.2,0,0,0,10.13-5.65h0L298.32,78.9a8.21,8.21,0,0,0-5.64-10.14l-8.11-2.3a155.47,155.47,0,0,0-71.37-3.19Z" style="fill:none;stroke:#232755;stroke-linecap:round;stroke-linejoin:round;stroke-width:3px"/><path d="M110.13,110.81l-4.73,16.72a8.21,8.21,0,0,0,5.66,10.14,8.1,8.1,0,0,0,2.19.31c17.06.11,50.16,3.71,70.83,27.94l4.48-15.8Z" style="fill:#fff;stroke:#232755;stroke-linecap:round;stroke-linejoin:round;stroke-width:3px"/><path d="M184.08,165.91a155.5,155.5,0,0,0-62.4-34.78l-8.12-2.3a8.21,8.21,0,0,1-5.66-10.13l24.64-86.84a8.21,8.21,0,0,1,10.14-5.66l8.12,2.3a155.6,155.6,0,0,1,62.4,34.77Z" style="fill:#fff"/><path d="M184.08,165.91a155.5,155.5,0,0,0-62.4-34.78l-8.12-2.3a8.21,8.21,0,0,1-5.66-10.13l24.64-86.84a8.21,8.21,0,0,1,10.14-5.66l8.12,2.3a155.6,155.6,0,0,1,62.4,34.77Z" style="fill:none;stroke:#232755;stroke-linecap:round;stroke-linejoin:round;stroke-width:3px"/><path d="M146.64,57.05a104.5,104.5,0,0,1,49,22.66" style="fill:none;stroke:#232755;stroke-linecap:round;stroke-linejoin:round;stroke-width:3px"/><path d="M141.92,73.45a104.56,104.56,0,0,1,49,22.66" style="fill:none;stroke:#232755;stroke-linecap:round;stroke-linejoin:round;stroke-width:3px"/><path d="M137.19,89.85a104.64,104.64,0,0,1,49,22.66" style="fill:none;stroke:#232755;stroke-linecap:round;stroke-linejoin:round;stroke-width:3px"/><path d="M132.46,106.26a104.53,104.53,0,0,1,49,22.65" style="fill:none;stroke:#232755;stroke-linecap:round;stroke-linejoin:round;stroke-width:3px"/><path d="M272.82,93.41a98.23,98.23,0,0,0-34.2-7.58" style="fill:none;stroke:#232755;stroke-linecap:round;stroke-linejoin:round;stroke-width:3px"/><path d="M268.09,109.81a96.75,96.75,0,0,0-31.34-7.39" style="fill:none;stroke:#232755;stroke-linecap:round;stroke-linejoin:round;stroke-width:3px"/><path d="M263.36,126.21a104.66,104.66,0,0,0-53.53-6.9" style="fill:none;stroke:#232755;stroke-linecap:round;stroke-linejoin:round;stroke-width:3px"/><path d="M258.63,142.61a104.54,104.54,0,0,0-53.53-6.88" style="fill:none;stroke:#232755;stroke-linecap:round;stroke-linejoin:round;stroke-width:3px"/><path d="M142.38,205.37c0,3.25,25.54,5.89,57.07,5.89s57.09-2.64,57.11-5.89h0c0-3.25-25.55-5.89-57.08-5.89s-57.09,2.63-57.1,5.89Z" style="fill:#d4d5ec"/><path d="M238,107.64a1.78,1.78,0,0,1-3.41,0l-4-12.78-9.43,8.44a1.8,1.8,0,0,1-2.9-1.83l12.71-43.57a5.36,5.36,0,0,1,4.68-3.83l10.66-.93a5.34,5.34,0,0,1,5.6,6.83Z" style="fill:#bec0e2"/><path d="M238,107.64a1.78,1.78,0,0,1-3.41,0l-4-12.78-9.43,8.44a1.8,1.8,0,0,1-2.9-1.83l12.71-43.57a5.36,5.36,0,0,1,4.68-3.83l10.66-.93a5.34,5.34,0,0,1,5.6,6.83Z" style="fill:none;stroke:#232755;stroke-linecap:round;stroke-linejoin:round;stroke-width:3px"/></g></svg>